<svg version="1.1" xmlns="http://www.w3.org/2000/svg" style="display: block;" viewBox="0 0 2048 2048" width="840" height="840" preserveAspectRatio="none">
<path transform="translate(0,0)" fill="rgb(160,209,210)" d="M 2048 1256.71 C 2042.56 1274.26 2038.08 1293.47 2032.6 1311.52 C 2022.06 1346.28 2009.48 1380.39 1994.91 1413.67 C 1890.53 1654.13 1694.43 1842.94 1450.19 1938.13 C 1208.74 2031.58 940.196 2026.17 702.707 1923.07 C 462.508 1817.92 274.182 1621.3 179.495 1376.79 C 86.3285 1134.18 92.9332 864.566 197.867 626.812 C 303.639 388.566 499.726 202.1 742.987 108.436 C 986.26 15.4481 1256.47 22.6589 1494.44 128.49 C 1670.61 207.32 1819.7 336.233 1923.14 499.174 C 1937.18 521.32 1966.69 570.402 1975.87 594.37 C 1978.86 593.517 1993.55 584.181 1997.04 582.072 L 2048 551.067 L 2048 690.795 C 2043.09 694.123 2026.61 704.864 2023.17 708.286 C 2033.12 736.409 2039.07 764.61 2048 790.631 L 2048 1256.71 z"/>
<path transform="translate(0,0)" fill="rgb(52,67,103)" d="M 417.639 1186 C 420.539 1135.32 422.715 1084.61 424.165 1033.87 C 425.585 986.671 432.612 848.437 405.659 814.467 C 391.861 797.077 366.69 793.288 351.407 776.764 C 343.039 767.717 338.377 756.6 339.135 744.185 C 340.043 729.298 348.431 715.887 359.665 706.465 C 397.508 674.727 521.243 670.672 571.203 674.804 C 590.766 676.422 618.32 679.287 634.574 691.608 C 641.112 696.564 646.608 704.127 651.078 710.921 C 667.081 735.24 680.07 762.609 693.952 788.241 L 765.62 920.146 C 775.131 937.806 784.517 955.781 794.888 972.889 C 801.542 983.864 809.029 993.302 822.742 994.029 C 832.549 994.549 841.63 988.133 847.252 980.639 C 861.143 962.123 871.443 939.574 881.885 918.919 L 930.573 824.012 C 949.129 787.618 973.913 727.794 1004.44 701.683 C 1040.29 671.009 1121.23 672.308 1166.85 674.708 C 1201.22 677.513 1248.36 682.672 1272.38 710.313 C 1288.69 729.095 1288.82 762.26 1268.57 778.696 L 1269.68 781.461 C 1263.84 783.286 1244.8 785.148 1237.7 785.997 C 1187.14 792.043 1161.52 792.612 1119.87 824.93 C 1141.4 823.976 1167.41 826.276 1189.3 826.758 C 1195.58 826.896 1220.65 827.797 1225.79 828.694 L 1225.18 831.603 C 1221.16 859.822 1216.98 878.095 1214.43 908.342 C 1210.71 956.895 1209.23 1005.59 1209.98 1054.28 C 1210.14 1075.04 1211.16 1096.77 1211.05 1117.29 C 1201.65 1118.89 1177.05 1130.02 1166.65 1134.3 C 1148.22 1141.69 1129.71 1148.9 1111.14 1155.92 C 1079.73 1167.11 1048.15 1177.81 1016.41 1188.03 C 1001.85 1192.68 986.616 1196.84 972.281 1201.8 L 972.767 1204.81 C 956.154 1208.4 935.817 1214.55 918.887 1219.07 C 903.193 1223.26 882.448 1227.22 867.841 1231.63 L 864.553 1230.16 C 860.004 1229.62 820.64 1238.18 812.982 1239.55 C 795.687 1242.5 778.355 1245.23 760.991 1247.74 C 737.193 1251.13 713.115 1252.99 689.199 1255.4 C 683.688 1255.96 678.145 1256.26 672.878 1258.09 L 670.786 1260 C 650.536 1259.59 629.566 1260.54 609.284 1259.89 C 591.514 1259.33 573.065 1257.33 555.397 1255.38 L 555.054 1252.08 C 514.346 1244.53 474.293 1235.41 440.753 1209.69 C 434.79 1205.12 419.486 1193.07 417.639 1186 z"/>
<path transform="translate(0,0)" fill="rgb(160,209,210)" d="M 555.054 1252.08 C 555.068 1202.86 554.883 1152.15 559.769 1103.1 C 561.985 1080.85 581.817 1074.02 595.181 1092.62 C 605.145 1105.44 610.462 1119.18 617.244 1134.21 L 654.103 1217.6 C 658.84 1228.28 667.469 1249.27 672.878 1258.09 L 670.786 1260 C 650.536 1259.59 629.566 1260.54 609.284 1259.89 C 591.514 1259.33 573.065 1257.33 555.397 1255.38 L 555.054 1252.08 z"/>
<path transform="translate(0,0)" fill="rgb(160,209,210)" d="M 864.553 1230.16 C 870.825 1220.57 875.029 1208.81 879.765 1198.33 C 892.655 1169.79 905.62 1137.23 924.619 1112.25 C 930.469 1104.56 938.521 1096.76 948.582 1095.69 C 953.412 1095.17 958.134 1096.33 961.865 1099.52 C 977.325 1112.74 970.764 1180.01 972.281 1201.8 L 972.767 1204.81 C 956.154 1208.4 935.817 1214.55 918.887 1219.07 C 903.193 1223.26 882.448 1227.22 867.841 1231.63 L 864.553 1230.16 z"/>
<path transform="translate(0,0)" fill="rgb(106,126,159)" d="M 1113.63 827.337 C 1151.46 792.786 1180.87 787.824 1231.11 782.913 C 1241.64 781.884 1258.5 778.468 1268.57 778.696 L 1269.68 781.461 C 1263.84 783.286 1244.8 785.148 1237.7 785.997 C 1187.14 792.043 1161.52 792.612 1119.87 824.93 C 1141.4 823.976 1167.41 826.276 1189.3 826.758 C 1195.58 826.896 1220.65 827.797 1225.79 828.694 L 1225.18 831.603 C 1210.9 832.355 1188.44 830.694 1173.61 830.159 C 1154.28 829.462 1132.53 829.373 1113.63 827.337 z"/>
<path transform="translate(0,0)" fill="rgb(52,67,103)" d="M 2048 1256.71 C 2042.56 1274.26 2038.08 1293.47 2032.6 1311.52 C 2022.06 1346.28 2009.48 1380.39 1994.91 1413.67 C 1890.53 1654.13 1694.43 1842.94 1450.19 1938.13 C 1208.74 2031.58 940.196 2026.17 702.707 1923.07 C 462.508 1817.92 274.182 1621.3 179.495 1376.79 C 86.3285 1134.18 92.9332 864.566 197.867 626.812 C 303.639 388.566 499.726 202.1 742.987 108.436 C 986.26 15.4481 1256.47 22.6589 1494.44 128.49 C 1670.61 207.32 1819.7 336.233 1923.14 499.174 C 1937.18 521.32 1966.69 570.402 1975.87 594.37 C 1973.96 595.021 1972.58 595.19 1971.25 596.418 C 1957.61 603.321 1934.48 619.466 1921.94 628.781 C 1901.82 588.859 1883.11 554.146 1858.08 516.642 C 1745.21 347.166 1579.26 219.966 1386.28 155.006 C 1154.08 77.2306 900.429 95.4924 681.766 205.727 C 464.181 315.818 299.259 507.857 223.301 739.576 C 147.72 971.473 167.61 1223.92 278.576 1441.12 C 389.463 1657.46 581.496 1821.08 812.687 1896.23 C 1043.56 1970.69 1294.52 1950.74 1510.73 1840.74 C 1728.32 1729.68 1892.73 1536.53 1967.6 1303.98 C 2027.39 1117.19 2024.04 932.783 1968.44 746.144 C 1970.58 744.005 1982.83 736.709 1985.84 734.809 C 1996.72 727.956 2007.24 721.393 2017.32 713.309 C 2019.54 712.006 2021.25 710.095 2023.17 708.286 C 2033.12 736.409 2039.07 764.61 2048 790.631 L 2048 1256.71 z"/>
<path transform="translate(0,0)" fill="rgb(52,67,103)" d="M 1975.87 594.37 C 1978.86 593.517 1993.55 584.181 1997.04 582.072 L 2048 551.067 L 2048 690.795 C 2043.09 694.123 2026.61 704.864 2023.17 708.286 C 2021.25 710.095 2019.54 712.006 2017.32 713.309 C 2007.24 721.393 1996.72 727.956 1985.84 734.809 C 1982.83 736.709 1970.58 744.005 1968.44 746.144 L 1966.44 745.576 C 1964.25 747.226 1957.75 751.903 1956.82 754.055 C 1950.5 768.552 1945.14 786.35 1940.12 801.389 L 1911.54 886.68 C 1906.92 900.458 1901.19 919.326 1895.86 932.507 C 1886.27 938.917 1875.25 943.775 1866.42 949.998 C 1852.2 928.036 1839.4 902.14 1823.71 881.86 C 1820.26 877.4 1805.7 866.108 1800.51 862.007 C 1728.77 912.894 1649.7 952.562 1566.02 979.649 L 1573.56 1000.7 C 1566.05 1006.75 1557.24 1014.2 1549.61 1019.87 C 1533.48 1014.54 1515.97 1009.14 1500.1 1003.4 C 1485.23 1007.08 1460.64 1012.56 1446.98 1016.85 C 1439.84 1019.09 1413.65 1034.74 1404.87 1039.53 C 1380.68 1052.63 1356.34 1065.42 1331.84 1077.93 C 1306.23 1090.84 1280.39 1103.3 1254.34 1115.31 C 1247.9 1118.28 1215.51 1132.61 1212 1135.24 C 1165.89 1156.75 1110.98 1177.97 1063.33 1195.6 C 1040.1 1204.19 992.758 1221.57 969.137 1227.5 C 955.573 1230.09 926.697 1239.85 911.872 1244.02 C 898.908 1247.67 862.327 1256.13 852.175 1260.29 C 819.109 1269.43 781.111 1276.38 747.39 1282.37 C 732.81 1284.96 705.891 1289.66 691.689 1290.11 C 688.292 1292.52 689.322 1290.99 688.024 1294.5 C 688.666 1298.54 689.441 1299.01 692.131 1302.35 C 679.404 1304.56 666.67 1305.94 653.854 1307.52 C 650.574 1307.93 648.901 1309.55 646.349 1311.58 C 642.966 1310.24 640.718 1307.69 637.857 1305.17 C 619.084 1310.35 600.469 1309.03 581.163 1309.09 C 575.475 1309.1 572.868 1308.4 567.463 1310.49 L 566.333 1309.38 C 561.84 1305.02 561.064 1301.94 559.296 1295.83 C 505.845 1291.74 457.118 1286.14 411.209 1254.15 C 403.598 1247.11 395.024 1240.17 388.652 1232.1 C 348.4 1181.07 367.707 1113.51 395.501 1061.65 C 397.324 1058.25 400.608 1050.09 403.405 1047.9 C 403.667 1049.82 403.925 1049.65 403.277 1051.21 C 397.915 1064.09 394.761 1076.42 392.866 1090.3 C 387.603 1128.85 393.343 1158.8 416.557 1189.91 L 417.639 1186 C 419.486 1193.07 434.79 1205.12 440.753 1209.69 C 474.293 1235.41 514.346 1244.53 555.054 1252.08 L 555.397 1255.38 C 573.065 1257.33 591.514 1259.33 609.284 1259.89 C 629.566 1260.54 650.536 1259.59 670.786 1260 L 672.878 1258.09 C 678.145 1256.26 683.688 1255.96 689.199 1255.4 C 713.115 1252.99 737.193 1251.13 760.991 1247.74 C 778.355 1245.23 795.687 1242.5 812.982 1239.55 C 820.64 1238.18 860.004 1229.62 864.553 1230.16 L 867.841 1231.63 C 882.448 1227.22 903.193 1223.26 918.887 1219.07 C 935.817 1214.55 956.154 1208.4 972.767 1204.81 L 972.281 1201.8 C 986.616 1196.84 1001.85 1192.68 1016.41 1188.03 C 1048.15 1177.81 1079.73 1167.11 1111.14 1155.92 C 1129.71 1148.9 1148.22 1141.69 1166.65 1134.3 C 1177.05 1130.02 1201.65 1118.89 1211.05 1117.29 C 1211.16 1096.77 1210.14 1075.04 1209.98 1054.28 C 1209.23 1005.59 1210.71 956.895 1214.43 908.342 C 1216.98 878.095 1221.16 859.822 1225.18 831.603 L 1225.79 828.694 C 1220.65 827.797 1195.58 826.896 1189.3 826.758 C 1167.41 826.276 1141.4 823.976 1119.87 824.93 C 1161.52 792.612 1187.14 792.043 1237.7 785.997 C 1244.8 785.148 1263.84 783.286 1269.68 781.461 C 1306.25 775.13 1358.96 770.453 1396.27 766.218 C 1482.7 756.164 1569.26 747.236 1655.93 739.437 C 1681.95 737.022 1707.99 734.748 1734.04 732.614 C 1748.18 731.458 1772.14 730.455 1785.35 727.363 C 1788.93 726.526 1812.3 708.809 1816.38 705.792 C 1833.6 693.029 1850.9 680.365 1868.26 667.801 C 1885.52 655.332 1905.69 642.461 1922.15 630.006 L 1921.94 628.781 C 1934.48 619.466 1957.61 603.321 1971.25 596.418 C 1972.58 595.19 1973.96 595.021 1975.87 594.37 z"/>
<path transform="translate(0,0)" fill="rgb(160,209,210)" d="M 1225.79 828.694 C 1244.74 830.615 1267.76 830.738 1287.21 831.53 C 1329.21 833.33 1371.22 834.898 1413.24 836.234 L 1551.87 841.518 C 1574.37 842.372 1602.26 844.24 1624.23 844.055 C 1601.32 860.91 1580.17 878.711 1557.26 895.645 C 1516.91 878.969 1463.75 857.526 1422.89 843.123 C 1414.18 848.999 1404.06 855.535 1395.64 861.638 C 1420.38 893.785 1444.95 926.06 1469.36 958.462 C 1435.04 963.63 1400.68 968.528 1366.29 973.158 C 1352.69 975.046 1334.93 977.327 1321.63 979.838 C 1313.85 981.308 1293.59 997.75 1285.94 1003.34 L 1385.5 995.933 C 1404.73 994.446 1428.9 991.975 1447.87 991.813 C 1445.97 996.45 1442.68 1005.76 1438.94 1008.45 C 1427.47 1016.7 1410.56 1024.66 1398.05 1031.12 C 1358.93 1051.61 1319.26 1071.05 1279.09 1089.42 C 1263.81 1096.35 1248.49 1103.18 1233.13 1109.93 C 1229.12 1111.69 1214.84 1117.51 1211.98 1119.25 L 1211.05 1117.29 C 1211.16 1096.77 1210.14 1075.04 1209.98 1054.28 C 1209.23 1005.59 1210.71 956.895 1214.43 908.342 C 1216.98 878.095 1221.16 859.822 1225.18 831.603 L 1225.79 828.694 z"/>
<path transform="translate(0,0)" fill="rgb(160,209,210)" d="M 559.296 1295.83 C 587.603 1295.94 615.892 1296.52 644.126 1294.17 C 659.983 1292.85 675.84 1291.51 691.689 1290.11 C 688.292 1292.52 689.322 1290.99 688.024 1294.5 C 688.666 1298.54 689.441 1299.01 692.131 1302.35 C 679.404 1304.56 666.67 1305.94 653.854 1307.52 C 650.574 1307.93 648.901 1309.55 646.349 1311.58 C 642.966 1310.24 640.718 1307.69 637.857 1305.17 C 619.084 1310.35 600.469 1309.03 581.163 1309.09 C 575.475 1309.1 572.868 1308.4 567.463 1310.49 L 566.333 1309.38 C 561.84 1305.02 561.064 1301.94 559.296 1295.83 z"/>
<path transform="translate(0,0)" fill="rgb(106,126,159)" d="M 972.281 1201.8 C 986.616 1196.84 1001.85 1192.68 1016.41 1188.03 C 1048.15 1177.81 1079.73 1167.11 1111.14 1155.92 C 1129.71 1148.9 1148.22 1141.69 1166.65 1134.3 C 1177.05 1130.02 1201.65 1118.89 1211.05 1117.29 L 1211.98 1119.25 C 1183.61 1133.11 1146.76 1146.5 1116.96 1157.54 C 1087.71 1168.37 1056.98 1179.51 1027.35 1188.79 C 1013.2 1193.22 986.612 1202.56 972.767 1204.81 L 972.281 1201.8 z"/>
<path transform="translate(0,0)" fill="rgb(106,126,159)" d="M 864.553 1230.16 L 867.841 1231.63 C 825.731 1242.58 715.219 1261.68 670.786 1260 L 672.878 1258.09 C 678.145 1256.26 683.688 1255.96 689.199 1255.4 C 713.115 1252.99 737.193 1251.13 760.991 1247.74 C 778.355 1245.23 795.687 1242.5 812.982 1239.55 C 820.64 1238.18 860.004 1229.62 864.553 1230.16 z"/>
<path transform="translate(0,0)" fill="rgb(106,126,159)" d="M 416.557 1189.91 L 417.639 1186 C 419.486 1193.07 434.79 1205.12 440.753 1209.69 C 474.293 1235.41 514.346 1244.53 555.054 1252.08 L 555.397 1255.38 C 516.376 1253.95 437.07 1225.26 416.557 1189.91 z"/>
<path transform="translate(0,0)" fill="rgb(74,87,124)" d="M 1971.25 596.418 L 1972.58 597.53 C 1971.07 599.669 1925.88 628.629 1922.15 630.006 L 1921.94 628.781 C 1934.48 619.466 1957.61 603.321 1971.25 596.418 z"/>
<path transform="translate(0,0)" fill="rgb(74,87,124)" d="M 1966.44 745.576 C 1974 738.904 2007.28 717.465 2016.04 712.854 L 2017.32 713.309 C 2007.24 721.393 1996.72 727.956 1985.84 734.809 C 1982.83 736.709 1970.58 744.005 1968.44 746.144 L 1966.44 745.576 z"/>
<path transform="translate(0,0)" fill="rgb(254,254,254)" d="M 1865.72 709.384 C 1872.08 709.01 1875.99 707.83 1880.82 711.514 C 1882.69 715.298 1882.11 719.268 1882.04 723.637 C 1891.15 726.66 1894.93 726.275 1904.41 726.188 C 1917.52 725.733 1930.5 754.219 1917.56 760.439 C 1904.73 766.606 1886.91 730.702 1871.8 745.614 C 1869.65 747.728 1869.27 749.048 1869.23 752.026 C 1873.06 762.671 1896.75 765.746 1908.46 772.526 C 1931.91 786.099 1930.18 810.885 1910.84 827.653 C 1903.36 834.135 1891.94 836.815 1881.75 839.03 C 1882.05 843.242 1882.69 846.636 1881.38 850.592 C 1878.08 853.184 1878.82 852.389 1874.12 853.158 C 1870.17 853.001 1866.27 853.247 1863.35 850.703 C 1861.65 847.227 1862.59 843.359 1863 839.386 C 1850.77 836.033 1833.83 835.783 1827.5 822.849 C 1824.38 816.487 1820.07 796.029 1828.82 793.067 C 1839.22 795.737 1848.72 823.212 1866.58 820.311 C 1870.77 819.632 1885.74 816.213 1881.03 808.904 C 1875.65 800.565 1856.76 797.601 1848.46 792.55 C 1830.21 783.268 1819.31 765.012 1829.64 745.675 C 1837 731.882 1848.93 726.96 1862.95 723.065 C 1862.59 716.677 1860.28 713.146 1865.72 709.384 z"/>
<path transform="translate(0,0)" fill="rgb(254,254,254)" d="M 1212 1135.24 C 1217.37 1138.4 1215.36 1143.18 1213.12 1148.06 L 1210.78 1149.4 C 1214.41 1150.19 1215.2 1150.11 1217.99 1152.65 C 1219.35 1157.92 1217.64 1159.53 1214.79 1164.43 L 1214.03 1165.72 C 1218.86 1179.66 1229.45 1204.75 1237.25 1217.23 C 1243.26 1218.62 1250.63 1219.04 1249.61 1226.75 C 1242.65 1236.74 1226.52 1240.86 1221.24 1245.39 C 1222.8 1247.3 1226.71 1286.4 1231.1 1297.13 C 1245.38 1332.01 1294.15 1330.94 1288.81 1374.2 C 1283.38 1408.77 1250.05 1418.79 1221.57 1425.82 C 1144.26 1444.92 1063.96 1444.83 985.981 1430.25 C 946.155 1422.8 888.658 1405.95 912.106 1352.23 C 914.327 1350.56 916.944 1347.36 918.878 1345.17 C 921.689 1340.94 922.559 1339.78 926.134 1336.21 C 929.541 1339.98 931.092 1343.17 936.216 1341.63 C 938.665 1338.37 938.456 1335.85 938.962 1331.59 C 940.385 1325.64 947.11 1314.98 951.592 1310.93 L 954.738 1322.97 C 951.808 1327.34 949.516 1329.3 951.368 1334.61 C 959.15 1342.43 995.438 1330.85 994.561 1319.32 C 992.378 1315.8 989.302 1314.74 985.535 1312.75 C 977.025 1297.04 970.96 1274.74 968.286 1257.14 C 970.496 1253.36 971.448 1252.12 972.606 1247.99 C 971.558 1243.78 971.776 1245 968.303 1241.45 C 969.252 1235.14 969.82 1234.26 969.137 1227.5 C 992.758 1221.57 1040.1 1204.19 1063.33 1195.6 C 1110.98 1177.97 1165.89 1156.75 1212 1135.24 z"/>
<path transform="translate(0,0)" fill="rgb(52,67,103)" d="M 1210.78 1149.4 C 1214.41 1150.19 1215.2 1150.11 1217.99 1152.65 C 1219.35 1157.92 1217.64 1159.53 1214.79 1164.43 L 1214.03 1165.72 C 1218.86 1179.66 1229.45 1204.75 1237.25 1217.23 C 1243.26 1218.62 1250.63 1219.04 1249.61 1226.75 C 1242.65 1236.74 1226.52 1240.86 1221.24 1245.39 C 1216.76 1247.16 1211.88 1248.35 1207.14 1247.43 C 1200.67 1242.93 1204.09 1238.45 1207.08 1232.62 C 1202.77 1220.48 1192.84 1194.04 1184.8 1183.68 C 1183.78 1182.36 1174.99 1178.89 1171.16 1175.42 C 1168.2 1163.62 1201.76 1151.84 1210.78 1149.4 z"/>
<path transform="translate(0,0)" fill="rgb(52,67,103)" d="M 1139.03 1180.28 C 1150.38 1180.7 1161.48 1185.96 1163.78 1198.25 C 1165.53 1207.65 1162.19 1212.41 1157.17 1219.75 C 1176.47 1220.91 1177.78 1225.39 1187.79 1241.19 C 1214.53 1244.12 1189.53 1262.58 1175.31 1264.82 C 1155.21 1267.97 1148.1 1236.37 1134.3 1238.11 C 1131.33 1240.21 1132.33 1238.84 1131.28 1242.41 C 1132.34 1249.04 1136.02 1254.96 1139.64 1260.48 C 1144.77 1262.06 1146.51 1262.18 1149.27 1266.46 C 1149.12 1278.21 1125.77 1283.61 1116.61 1286.83 C 1111.43 1288.65 1110.23 1287.96 1105.65 1285.26 L 1104.36 1284.48 C 1101.21 1288.5 1099.94 1291.75 1095.2 1294.18 C 1086.34 1298.73 1062.75 1307.47 1053.55 1304.54 C 1049.08 1299.1 1056.22 1295.92 1055.63 1288.73 C 1050.61 1285.18 1022.8 1292.7 1023.29 1301.38 C 1025.43 1303.46 1032.16 1305.11 1036 1306.75 C 1035.6 1318.29 1013.82 1322.92 1004.58 1324.84 C 1002.11 1325.36 999.983 1323.79 998.229 1322.28 C 995.072 1314.34 1003.78 1312.68 1004.99 1306.07 C 1009.5 1281.44 1012.32 1256.54 1005.18 1232.78 C 1007.58 1229.46 1010.74 1225.4 1014.17 1223.38 C 1038.09 1209.24 1074.27 1266.85 1093.15 1277.99 C 1095.56 1279.41 1100.98 1280.52 1103.51 1281.07 L 1107.77 1270.29 C 1103.45 1256.48 1092.98 1229.73 1086.14 1217.47 C 1080.94 1216.74 1079.1 1216.92 1075.73 1213.22 C 1074.08 1200.33 1127.87 1182.1 1139.03 1180.28 z"/>
<path transform="translate(0,0)" fill="rgb(254,254,254)" d="M 1121.4 1200.68 C 1129.39 1201.89 1134.05 1208.5 1133.66 1216.32 C 1133.4 1221.71 1131.19 1223.14 1127.45 1226.48 C 1121.4 1227.26 1116.25 1209.38 1117.04 1204.46 C 1117.25 1203.12 1120.22 1201.51 1121.4 1200.68 z"/>
<path transform="translate(0,0)" fill="rgb(254,254,254)" d="M 1025.82 1256.3 C 1030.35 1258.2 1042.46 1266.32 1040.62 1272.03 L 1036.94 1273.79 L 1023.37 1277.77 C 1023.58 1270.66 1023.42 1262.91 1025.82 1256.3 z"/>
<path transform="translate(0,0)" fill="rgb(254,254,254)" d="M 411.209 1254.15 C 457.118 1286.14 505.845 1291.74 559.296 1295.83 C 561.064 1301.94 561.84 1305.02 566.333 1309.38 L 567.463 1310.49 C 561.63 1318.14 553.006 1333.92 560.381 1342.79 C 572.304 1346.07 580.017 1328 585.552 1327.55 C 590.249 1334.18 588.285 1374.48 587.423 1384.05 C 582.093 1385.74 575.2 1387.02 577.238 1393.92 C 583.302 1399.8 594.828 1401.23 602.944 1401.14 C 606.602 1401.09 610.258 1400.97 613.911 1400.76 L 613.282 1402.75 C 587.761 1426.88 541.527 1432.5 503.751 1435.8 C 457.32 1439.85 341.518 1441.6 333.379 1377.22 C 332.124 1367.29 338.646 1348.48 352.273 1348.14 L 356.069 1348.77 C 359.311 1347.02 358.441 1347.21 360.572 1343.38 C 360.243 1341.67 359.811 1338.74 360.659 1337.28 C 367.555 1325.45 391.801 1307.25 402.559 1301.53 C 407.841 1298.37 409.919 1300.01 415.919 1299.05 C 419.001 1297.01 419.276 1295.88 420.99 1292.64 C 417.051 1284.62 414.678 1281.26 409.167 1274.37 C 409.157 1268.87 408.866 1258.81 411.209 1254.15 z"/>
<path transform="translate(0,0)" fill="rgb(52,67,103)" d="M 423.679 1294.11 C 426.042 1289.89 429.15 1283.13 434.511 1282.39 C 451.199 1280.06 457.654 1297.43 458.768 1311.06 C 460.539 1332.73 460.534 1354.79 460.97 1376.56 C 465.496 1381.16 469.488 1384.83 463.931 1390.67 C 455.212 1393.45 421.157 1378.56 416.357 1369.55 C 416.553 1363.15 422.406 1362.14 427.634 1358.78 L 427.74 1357.38 C 421.624 1351.42 403.779 1340.51 395.801 1345.86 L 395.42 1347.68 C 398.231 1351.76 400.175 1353.52 399.475 1358.06 C 397.24 1360.46 396.815 1361.01 394.111 1363.03 C 384.514 1359.74 366.419 1354.67 362.02 1345.21 L 360.572 1343.38 C 360.243 1341.67 359.811 1338.74 360.659 1337.28 C 367.555 1325.45 391.801 1307.25 402.559 1301.53 C 407.841 1298.37 409.919 1300.01 415.919 1299.05 C 419.001 1297.01 419.276 1295.88 420.99 1292.64 L 423.679 1294.11 z"/>
<path transform="translate(0,0)" fill="rgb(160,209,210)" d="M 360.572 1343.38 C 360.243 1341.67 359.811 1338.74 360.659 1337.28 C 367.555 1325.45 391.801 1307.25 402.559 1301.53 C 398.75 1317.14 384.585 1327.36 371.794 1335.51 C 369.756 1336.81 370.171 1338.42 371.907 1339.78 C 365.195 1340.2 365.608 1339.24 362.02 1345.21 L 360.572 1343.38 z"/>
<path transform="translate(0,0)" fill="rgb(254,254,254)" d="M 420.99 1292.64 L 423.679 1294.11 C 417.728 1305.14 384.101 1336.49 371.907 1339.78 C 370.171 1338.42 369.756 1336.81 371.794 1335.51 C 384.585 1327.36 398.75 1317.14 402.559 1301.53 C 407.841 1298.37 409.919 1300.01 415.919 1299.05 C 419.001 1297.01 419.276 1295.88 420.99 1292.64 z"/>
<path transform="translate(0,0)" fill="rgb(254,254,254)" d="M 426.922 1314.85 C 430.83 1318.73 430.59 1331.78 430.836 1337.44 L 422.575 1333.9 L 411.433 1328.87 C 416.877 1323.39 420.643 1319.32 426.922 1314.85 z"/>
<path transform="translate(0,0)" fill="rgb(52,67,103)" d="M 511.148 1301.35 C 521.901 1301.97 549.492 1306.94 554.181 1317.61 C 556.911 1323.81 556.858 1334.06 549.733 1337.35 C 537.21 1336.14 530.31 1314.75 515.078 1321.03 C 512.903 1323.78 513.573 1322.82 513.569 1327.18 C 515.893 1331.93 524.588 1335.72 529.366 1337.89 C 551.719 1348.05 563.668 1365.02 544.096 1385.9 C 535.176 1395.42 523.263 1395.98 510.752 1395.86 L 509.214 1395.71 C 498.263 1394.57 482.364 1392.17 475.223 1382.87 C 470.044 1376.13 466.849 1360.4 474.772 1354.49 C 483.36 1355.5 500.895 1395.59 516.801 1373.17 C 515.833 1368.87 500.158 1360.79 495.526 1357.96 C 462.473 1337.72 475.127 1305.75 511.148 1301.35 z"/>
<path transform="translate(0,0)" fill="rgb(52,67,103)" d="M 691.689 1290.11 C 705.891 1289.66 732.81 1284.96 747.39 1282.37 C 781.111 1276.38 819.109 1269.43 852.175 1260.29 C 852.663 1261.9 853.374 1263.63 852.512 1265.22 C 848.678 1272.28 825.098 1328.84 822.12 1330.69 C 831.185 1337.84 833.277 1343.98 837.736 1354.37 C 841.993 1355.69 844.345 1355.87 847.083 1359.1 C 849.989 1369.63 829.891 1373.94 822.475 1374.56 C 820.757 1374.69 819.034 1374.74 817.312 1374.71 C 812.499 1372.15 810.582 1371.13 806.326 1367.79 C 794.245 1385.45 776.006 1423.78 748.285 1402.74 C 744.09 1399.56 739.276 1393.94 737.205 1389.03 C 728.07 1390.47 662.479 1396.66 658.879 1395.56 C 656.75 1392.5 657.16 1394.11 657.221 1390.68 C 659.515 1387.26 660.709 1386.55 663.958 1383.86 C 665.353 1372.03 663.52 1324.85 652.726 1319.18 L 651.209 1319.65 C 649.683 1328.66 654.632 1331.86 649.045 1338.29 C 645.062 1340 645.236 1339.88 640.842 1339.9 C 633.038 1336.12 628.33 1324.07 622.456 1326.01 C 618.867 1332.29 621.208 1372.12 622.589 1380.14 C 625.709 1382.12 636.502 1387.68 633.356 1392.75 C 629.578 1398.84 618.912 1398.6 613.911 1400.76 C 610.258 1400.97 606.602 1401.09 602.944 1401.14 C 594.828 1401.23 583.302 1399.8 577.238 1393.92 C 575.2 1387.02 582.093 1385.74 587.423 1384.05 C 588.285 1374.48 590.249 1334.18 585.552 1327.55 C 580.017 1328 572.304 1346.07 560.381 1342.79 C 553.006 1333.92 561.63 1318.14 567.463 1310.49 C 572.868 1308.4 575.475 1309.1 581.163 1309.09 C 600.469 1309.03 619.084 1310.35 637.857 1305.17 C 640.718 1307.69 642.966 1310.24 646.349 1311.58 C 648.901 1309.55 650.574 1307.93 653.854 1307.52 C 666.67 1305.94 679.404 1304.56 692.131 1302.35 C 689.441 1299.01 688.666 1298.54 688.024 1294.5 C 689.322 1290.99 688.292 1292.52 691.689 1290.11 z"/>
<path transform="translate(0,0)" fill="rgb(254,254,254)" d="M 712.957 1314.59 C 724.503 1323.11 735.531 1331.23 731.714 1308 L 742.09 1314.18 C 746.737 1327.01 752.518 1357.15 753.424 1370.79 C 750.559 1373.86 748.587 1375.29 747.557 1379.18 C 749.833 1393.74 788.241 1383.48 795.526 1374.71 C 796.383 1371.4 796.557 1372.91 795.296 1369.99 C 791.646 1367.29 790.339 1366.57 786.273 1364.47 C 784.117 1358 781.029 1350.02 781.723 1343.32 C 784.233 1341.15 782.776 1341.96 786.507 1341.4 C 796.581 1344.5 800.583 1359.61 806.326 1367.79 C 794.245 1385.45 776.006 1423.78 748.285 1402.74 C 744.09 1399.56 739.276 1393.94 737.205 1389.03 C 741.982 1381.79 752.305 1353.16 735.215 1356.33 C 732.024 1359.46 728.517 1367.39 725.583 1372.03 C 718.216 1362.03 720.115 1354.91 718.505 1344.3 L 718.371 1343.46 C 717.084 1335.58 715.896 1323.89 706.045 1324.14 L 703.519 1323.97 C 699.956 1321.28 699.965 1322.19 698.898 1318.74 L 700.136 1316.55 C 704.267 1313.9 707.889 1314.56 712.957 1314.59 z"/>
<path transform="translate(0,0)" fill="rgb(254,254,254)" d="M 691.689 1290.11 C 705.891 1289.66 732.81 1284.96 747.39 1282.37 C 781.111 1276.38 819.109 1269.43 852.175 1260.29 C 852.663 1261.9 853.374 1263.63 852.512 1265.22 C 848.678 1272.28 825.098 1328.84 822.12 1330.69 C 818.556 1329.65 814.623 1328.86 810.979 1328.03 C 813.225 1325.59 815.073 1323.23 817.012 1320.7 C 823.128 1312.76 821.925 1294.79 811.604 1289.71 C 792.238 1280.18 763.323 1293.61 742.873 1296.39 C 736.874 1297.21 734.938 1299.81 732.255 1304.53 L 731.639 1305.64 L 730.818 1305.69 C 727.744 1300.31 725.725 1298.89 721.178 1294.9 C 711.859 1300.06 702.588 1300.72 692.131 1302.35 C 689.441 1299.01 688.666 1298.54 688.024 1294.5 C 689.322 1290.99 688.292 1292.52 691.689 1290.11 z"/>
<path transform="translate(0,0)" fill="rgb(160,209,210)" d="M 718.371 1343.46 L 718.505 1344.3 C 720.115 1354.91 718.216 1362.03 725.583 1372.03 C 717.814 1379.12 706.548 1378.7 696.626 1378.77 C 693.708 1370.38 691.709 1362.69 693.476 1353.85 C 701.446 1347.72 706.29 1363.48 715.029 1362.99 C 718.574 1359.16 718.179 1348.87 718.371 1343.46 z"/>
<path transform="translate(0,0)" fill="rgb(160,209,210)" d="M 706.045 1324.14 C 704.076 1326.57 703.758 1327.15 703.373 1330.28 C 700.163 1356.39 676.717 1327.28 690.963 1316.55 C 696.357 1312.49 706.08 1313.65 712.957 1314.59 C 707.889 1314.56 704.267 1313.9 700.136 1316.55 L 698.898 1318.74 C 699.965 1322.19 699.956 1321.28 703.519 1323.97 L 706.045 1324.14 z"/>
<path transform="translate(0,0)" fill="rgb(254,254,254)" d="M 777.988 1302.51 C 790.52 1306.99 794.112 1320.24 782.156 1328.16 C 779.868 1328.79 780.731 1328.65 778.297 1328.41 C 774.796 1323.28 773.471 1314.29 773.68 1308.06 C 773.787 1304.84 775.53 1304.34 777.988 1302.51 z"/>
<path transform="translate(0,0)" fill="rgb(52,67,103)" d="M 892.919 1262.57 C 901.232 1268.81 921.948 1291.88 927.22 1292.13 C 940.744 1282.4 917.541 1242.54 968.303 1241.45 C 971.776 1245 971.558 1243.78 972.606 1247.99 C 971.448 1252.12 970.496 1253.36 968.286 1257.14 C 970.96 1274.74 977.025 1297.04 985.535 1312.75 C 989.302 1314.74 992.378 1315.8 994.561 1319.32 C 995.438 1330.85 959.15 1342.43 951.368 1334.61 C 949.516 1329.3 951.808 1327.34 954.738 1322.97 L 951.592 1310.93 C 947.11 1314.98 940.385 1325.64 938.962 1331.59 C 938.456 1335.85 938.665 1338.37 936.216 1341.63 C 931.092 1343.17 929.541 1339.98 926.134 1336.21 C 922.559 1339.78 921.689 1340.94 918.878 1345.17 C 916.944 1347.36 914.327 1350.56 912.106 1352.23 C 905.527 1354.48 888.154 1361.92 884.108 1353.78 C 885.018 1348.86 886.13 1348.85 889.642 1344.7 C 887.978 1328.68 880.089 1301.54 873.777 1286.95 C 869.29 1285.06 865.415 1284.17 862.776 1280.33 C 860.932 1268.57 884.088 1264.27 892.919 1262.57 z"/>
<path transform="translate(0,0)" fill="rgb(160,209,210)" d="M 907.458 1338.22 C 905.039 1332.95 898.86 1317.88 901.07 1312.65 L 902.995 1312.22 C 910.204 1315.52 920.624 1329.58 926.134 1336.21 C 922.559 1339.78 921.689 1340.94 918.878 1345.17 C 915.01 1340.69 912.948 1340.44 907.458 1338.22 z"/>
<path transform="translate(0,0)" fill="rgb(160,209,210)" d="M 938.962 1331.59 C 939.267 1323.51 940.163 1305.53 945.703 1299.83 L 947.66 1300.02 C 950.275 1303.21 950.628 1306.8 951.592 1310.93 C 947.11 1314.98 940.385 1325.64 938.962 1331.59 z"/>
<path transform="translate(0,0)" fill="rgb(52,67,103)" d="M 294.816 1259.81 C 308.747 1252.38 329.199 1236.5 340.275 1225.91 C 345.804 1220.62 339.818 1193.48 361.136 1216.44 C 366.693 1222.43 369.56 1225.77 373.04 1233.31 C 369.137 1244.77 359.189 1262.97 357.872 1273.26 L 359.174 1274.65 C 378.802 1277.8 391.827 1261.39 409.167 1274.37 C 414.678 1281.26 417.051 1284.62 420.99 1292.64 C 419.276 1295.88 419.001 1297.01 415.919 1299.05 C 409.919 1300.01 407.841 1298.37 402.559 1301.53 C 391.801 1307.25 367.555 1325.45 360.659 1337.28 C 359.811 1338.74 360.243 1341.67 360.572 1343.38 C 358.441 1347.21 359.311 1347.02 356.069 1348.77 L 352.273 1348.14 C 344.564 1342.2 326.82 1324.95 327.781 1314.85 C 331.936 1308.61 352.511 1311.11 359.186 1295.48 C 355.141 1287.02 324.16 1304.74 314.672 1300.14 C 312.602 1292.73 332.308 1267.02 330.289 1258.34 L 328.305 1257.97 C 321.518 1261.05 313.56 1268.19 307.965 1273.19 C 308.063 1276.72 308.59 1281.14 307.188 1284.18 C 298.181 1289.07 280.539 1266.72 282.668 1258.21 L 284.816 1257.06 C 289.567 1256.68 290.35 1257.52 294.816 1259.81 z"/>
<path transform="translate(0,0)" fill="rgb(52,67,103)" d="M 1383.5 1062.82 C 1390.99 1066.01 1401.87 1073.57 1400.61 1082.77 C 1393.28 1089.8 1367.76 1078.22 1359.42 1095.3 C 1359.41 1101.1 1365.22 1114.19 1371.48 1115.04 C 1386.23 1109.53 1372.1 1100.07 1380.35 1094.45 C 1392.92 1093.78 1404.33 1124.38 1400.1 1130.52 C 1395.51 1130.96 1390.09 1126.29 1386.15 1123.55 C 1381.31 1122.94 1379.69 1121.96 1377.41 1126.49 C 1377.56 1135.38 1384.15 1142.92 1389.72 1149.31 C 1401.17 1144.88 1407.39 1142.25 1414.91 1132.03 C 1415 1130.01 1415.1 1127.99 1415.21 1125.97 C 1415.46 1120.6 1415.07 1117.73 1419.87 1114.3 C 1431.34 1114.28 1431.24 1136.06 1431.03 1143.95 C 1418.2 1150.02 1369.3 1176.27 1360.39 1178.53 C 1357.55 1177.89 1358.8 1178.57 1356.91 1175.84 C 1356.48 1171.81 1358.61 1168.39 1360.32 1164.59 C 1355.26 1149.1 1343.74 1123.71 1331.66 1112.13 C 1324.34 1105.12 1318.57 1112.77 1315.2 1119.05 C 1319.66 1130.77 1325.32 1142.36 1330.62 1153.74 C 1334.5 1161.9 1344.64 1180.98 1341.3 1189.11 C 1330.48 1196.34 1287.65 1171.95 1272.9 1174.48 C 1265.7 1179.89 1275.97 1192.66 1279.77 1198.4 C 1283.88 1199.45 1286.25 1199.64 1289.46 1202.22 C 1296.44 1215.47 1262.89 1230.5 1256.64 1218.11 C 1256.32 1213.93 1258.16 1211.43 1260.11 1207.58 C 1255.7 1192.61 1244.56 1168.15 1234.47 1156.48 C 1229.37 1155.71 1226.1 1155.79 1222.47 1152.19 C 1218.7 1141.83 1239.98 1134.6 1247.74 1131.8 C 1262.72 1135.24 1277.28 1140.8 1292.2 1144.48 C 1297.4 1145.76 1302.22 1146.62 1304.84 1141.35 C 1304.2 1135.17 1300.58 1131.57 1296.75 1126.61 C 1291.66 1125.31 1284.69 1124.27 1284.64 1118.27 C 1291.3 1104.21 1308.63 1106.57 1317.57 1101.65 C 1339.38 1089.66 1364.11 1078.22 1383.5 1062.82 z"/>
<path transform="translate(0,0)" fill="rgb(52,67,103)" d="M 1460.84 1025.21 C 1477.89 1024.34 1484.05 1032.73 1486.99 1048.32 C 1485.49 1052.4 1483.07 1057.56 1481.31 1061.65 C 1486.89 1061.71 1492.48 1061.85 1498.06 1062.07 C 1505.09 1066.75 1509.21 1071.8 1514.74 1078.06 C 1519.08 1078 1520.65 1077.64 1524.51 1079.29 C 1527.39 1082.42 1526.59 1080.64 1527.08 1084.79 C 1525.31 1089.8 1523.12 1091.83 1519.11 1095.13 C 1489.68 1119.42 1482.97 1084.05 1462.86 1081.6 C 1459.45 1083.02 1460.73 1081.87 1459.03 1085.3 C 1459.4 1089.28 1460.59 1092.11 1463.02 1095.31 C 1469.24 1103.5 1467.71 1104.09 1477.76 1106 C 1479.9 1107.84 1479.7 1107.81 1480.63 1110.52 C 1478.37 1120.37 1445.42 1141.76 1437.84 1129.98 C 1437.24 1125.92 1438.66 1123.88 1440.34 1119.89 C 1436.07 1107.77 1421.21 1081.07 1412.43 1070.15 C 1410.48 1067.72 1402.82 1069.94 1398.99 1063.75 C 1400.18 1053.62 1449.98 1027.6 1460.84 1025.21 z"/>
<path transform="translate(0,0)" fill="rgb(160,209,210)" d="M 1444.01 1046.9 C 1456.51 1047.82 1464.18 1061.91 1452.91 1072.4 C 1446.76 1073.44 1440.43 1057.69 1439.71 1052.55 C 1439.31 1049.66 1442.04 1048.42 1444.01 1046.9 z"/>
</svg>